<svg xmlns="http://www.w3.org/2000/svg" width="192.881" height="100.179" viewBox="0 0 192.881 100.179">
    <defs>
        <style>
            .a {
                fill: #605543;
            }

            .b {
                fill: #595758;
            }
        </style>
    </defs>
    <g transform="translate(-513.379 -370.333)">
        <path class="a"
            d="M585.875,409.2h38.157V423.74H585.875Zm-4.9,0H542.82V423.74h38.159ZM542.82,370.333h0v33.973h38.159V389.767H557.357v-4.9h52.138v4.9h-23.62v14.539h38.157V370.333H542.82Z"
            transform="translate(26.379)" />
        <g transform="translate(513.379 441.399)">
            <path class="b"
                d="M524.226,424.792a3.429,3.429,0,0,0-.9-2.56,9.275,9.275,0,0,0-3.263-1.731,14.224,14.224,0,0,1-3.608-1.769,6.245,6.245,0,0,1-1.868-2.114,6.263,6.263,0,0,1,1.149-7.085,6.371,6.371,0,0,1,4.634-1.718,6.932,6.932,0,0,1,3.492.876,5.974,5.974,0,0,1,2.359,2.438,7.2,7.2,0,0,1,.828,3.428h-2.819a4.692,4.692,0,0,0-1-3.2,3.6,3.6,0,0,0-2.865-1.136,3.53,3.53,0,0,0-2.635.952,3.649,3.649,0,0,0-.935,2.67,3.118,3.118,0,0,0,1.01,2.364,8.992,8.992,0,0,0,3.127,1.7,10.734,10.734,0,0,1,4.712,2.683,6.039,6.039,0,0,1,1.416,4.167A5.63,5.63,0,0,1,525.3,429.1a6.773,6.773,0,0,1-4.793,1.631,7.71,7.71,0,0,1-3.593-.849,6.422,6.422,0,0,1-2.59-2.391,6.63,6.63,0,0,1-.942-3.53H516.2a4.328,4.328,0,0,0,1.157,3.217,4.264,4.264,0,0,0,3.149,1.149,3.74,3.74,0,0,0,2.787-.95A3.535,3.535,0,0,0,524.226,424.792Z"
                transform="translate(-513.379 -407.815)" />
            <path class="b"
                d="M533.761,424.447h-7.537l-1.731,5.836h-2.88l7.186-22.3h2.4l7.2,22.3h-2.88Zm-6.8-2.406h6.082L529.993,411.9Z"
                transform="translate(-506.001 -407.669)" />
            <path class="b" d="M546.668,430.283h-2.817V419.972h-8.98v10.311h-2.8v-22.3h2.8v9.588h8.98v-9.588h2.817Z"
                transform="translate(-496.633 -407.669)" />
            <path class="b"
                d="M555.824,407.978v15.856a6.771,6.771,0,0,1-1.839,4.962,6.82,6.82,0,0,1-11.873-4.962V407.978H544.9v15.735a5.037,5.037,0,0,0,.957,3.362,4.87,4.87,0,0,0,6.188,0,5.037,5.037,0,0,0,.957-3.362V407.978Z"
                transform="translate(-487.634 -407.669)" />
            <path class="b" d="M566.106,419.972h-7.891v7.906h9.192v2.4H555.413v-22.3h11.842v2.4h-9.04v7.184h7.891Z"
                transform="translate(-475.716 -407.669)" />
            <path class="b"
                d="M570.541,416.525l4.2-8.547h3.3l-5.807,11.059,5.929,11.245h-3.324l-4.291-8.7-4.3,8.7h-3.326l5.961-11.245-5.838-11.059h3.278Z"
                transform="translate(-468.998 -407.669)" />
            <path class="b"
                d="M575.547,421.552v8.731h-2.8v-22.3h7.108a6.435,6.435,0,0,1,4.886,1.86,7.947,7.947,0,0,1,.085,9.914,6.555,6.555,0,0,1-4.772,1.8Zm0-2.406h4.306a3.632,3.632,0,0,0,2.865-1.121,4.677,4.677,0,0,0,1-3.208,4.812,4.812,0,0,0-1.026-3.221,3.5,3.5,0,0,0-2.819-1.213h-4.321Z"
                transform="translate(-460.187 -407.669)" />
            <path class="b"
                d="M596.655,421.237q0,4.565-1.945,7.032a6.63,6.63,0,0,1-5.531,2.465,6.724,6.724,0,0,1-5.447-2.395,10.613,10.613,0,0,1-2.074-6.78v-4.2a11.14,11.14,0,0,1,1.976-7.01,6.6,6.6,0,0,1,5.515-2.537,6.673,6.673,0,0,1,5.491,2.431q1.971,2.426,2.016,6.932Zm-2.8-3.906a9.555,9.555,0,0,0-1.157-5.263,4.446,4.446,0,0,0-7.047.023,9.256,9.256,0,0,0-1.2,5.148v4a9.464,9.464,0,0,0,1.187,5.21,4.458,4.458,0,0,0,7.04.136,9.288,9.288,0,0,0,1.179-5.072Z"
                transform="translate(-452.201 -407.815)" />
            <path class="b"
                d="M598.6,421.26h-3.923v9.023h-2.819v-22.3h6.251a6.67,6.67,0,0,1,4.964,1.706,6.831,6.831,0,0,1,1.686,5,6.936,6.936,0,0,1-.912,3.606,5.754,5.754,0,0,1-2.581,2.323l4.319,9.484v.182h-3.018Zm-3.923-2.406h3.4a3.64,3.64,0,0,0,2.812-1.136,4.3,4.3,0,0,0,1.049-3.037q0-4.3-3.891-4.3h-3.371Z"
                transform="translate(-443.065 -407.669)" />
            <path class="b" d="M613.732,410.382h-5.868v19.9h-2.8v-19.9h-5.853v-2.4h14.525Z"
                transform="translate(-436.477 -407.669)" />
            <path class="b"
                d="M618.741,424.792a3.429,3.429,0,0,0-.9-2.56,9.277,9.277,0,0,0-3.263-1.731,14.194,14.194,0,0,1-3.608-1.769,6.27,6.27,0,0,1-1.869-2.114,6.272,6.272,0,0,1,1.149-7.085,6.372,6.372,0,0,1,4.636-1.718,6.932,6.932,0,0,1,3.492.876,5.985,5.985,0,0,1,2.359,2.438,7.2,7.2,0,0,1,.829,3.428h-2.819a4.692,4.692,0,0,0-1-3.2,3.6,3.6,0,0,0-2.863-1.136,3.535,3.535,0,0,0-2.637.952,3.656,3.656,0,0,0-.933,2.67,3.111,3.111,0,0,0,1.011,2.364,8.961,8.961,0,0,0,3.125,1.7,10.711,10.711,0,0,1,4.712,2.683,6.039,6.039,0,0,1,1.416,4.167,5.629,5.629,0,0,1-1.761,4.342,6.778,6.778,0,0,1-4.795,1.631,7.715,7.715,0,0,1-3.593-.849,6.417,6.417,0,0,1-2.588-2.391,6.63,6.63,0,0,1-.942-3.53h2.819a4.328,4.328,0,0,0,1.157,3.217,4.259,4.259,0,0,0,3.147,1.149,3.742,3.742,0,0,0,2.789-.95A3.535,3.535,0,0,0,618.741,424.792Z"
                transform="translate(-428.693 -407.815)" />
        </g>
        <g transform="translate(521.776 478.189)">
            <path
                d="M520.26,427.322a8.165,8.165,0,0,0-1.539,5.053,8.341,8.341,0,0,0,1.539,4.992h-.838a7.967,7.967,0,0,1-1.614-5.005,8.154,8.154,0,0,1,1.614-5.04Z"
                transform="translate(-517.808 -427.127)" />
            <path
                d="M521.372,433.146l-.863,2.615H519.4l2.823-8.308h1.293l2.835,8.308h-1.145l-.887-2.615Zm2.725-.836-.827-2.393c-.171-.54-.3-1.033-.419-1.515h-.036c-.11.482-.247,1-.408,1.5l-.813,2.4Z"
                transform="translate(-516.381 -427.01)" />
            <path
                d="M531.656,435.432a7.55,7.55,0,0,1-2.563.455,3.9,3.9,0,0,1-4.264-4.19,4.16,4.16,0,0,1,4.5-4.291,5.247,5.247,0,0,1,2.084.383l-.271.876a4.116,4.116,0,0,0-1.837-.358,3.107,3.107,0,0,0-3.339,3.341,3.039,3.039,0,0,0,3.2,3.352,3.5,3.5,0,0,0,1.43-.222V432.3H528.92v-.863h2.736Z"
                transform="translate(-511.518 -427.051)" />
            <path
                d="M531.936,434.851a2.84,2.84,0,0,1-2.857-3.066,2.92,2.92,0,0,1,2.958-3.17,2.822,2.822,0,0,1,2.871,3.058,2.921,2.921,0,0,1-2.958,3.178Zm.038-.81c1.035,0,1.811-.974,1.811-2.33,0-1.011-.5-2.281-1.786-2.281s-1.824,1.183-1.824,2.319c0,1.3.74,2.292,1.788,2.292Z"
                transform="translate(-507.709 -425.968)" />
            <path
                d="M533.584,428.688l1.17,3.339c.2.556.358,1.049.482,1.541h.036c.137-.493.309-.986.506-1.541l1.159-3.339h1.134l-2.342,5.965h-1.035l-2.268-5.965Z"
                transform="translate(-504.71 -425.903)" />
            <path
                d="M537.568,427.934v1.43h1.553v.825h-1.553V433.4c0,.739.211,1.16.813,1.16a2.039,2.039,0,0,0,.63-.074l.049.825a2.969,2.969,0,0,1-.961.146,1.537,1.537,0,0,1-1.172-.455,2.33,2.33,0,0,1-.419-1.564v-3.254h-.923v-.825h.923v-1.1Z"
                transform="translate(-501.88 -426.578)" />
            <path
                d="M538.672,432.637a.722.722,0,0,1-.715-.773.737.737,0,0,1,.74-.777.718.718,0,0,1,.726.777.726.726,0,0,1-.737.773Z"
                transform="translate(-499.754 -423.754)" />
            <path
                d="M540.356,427.606a11.1,11.1,0,0,1,2.057-.186,3.438,3.438,0,0,1,2.416.688,2.081,2.081,0,0,1,.654,1.578,2.2,2.2,0,0,1-1.566,2.11v.036a2.113,2.113,0,0,1,1.221,1.676,15.268,15.268,0,0,0,.627,2.281h-1.109a10.375,10.375,0,0,1-.542-1.985c-.247-1.145-.7-1.577-1.674-1.615h-1.012v3.6h-1.071Zm1.071,3.769h1.1c1.145,0,1.873-.628,1.873-1.577,0-1.071-.775-1.542-1.911-1.542a4.47,4.47,0,0,0-1.06.1Z"
                transform="translate(-497.605 -427.039)" />
            <path
                d="M544.673,431.923A1.9,1.9,0,0,0,546.706,434a4.1,4.1,0,0,0,1.653-.3l.2.764a4.874,4.874,0,0,1-2,.381,2.781,2.781,0,0,1-2.933-3.005c0-1.813,1.073-3.231,2.81-3.231a2.518,2.518,0,0,1,2.453,2.812,2.757,2.757,0,0,1-.038.516Zm3.168-.775a1.547,1.547,0,0,0-1.492-1.759,1.784,1.784,0,0,0-1.663,1.759Z"
                transform="translate(-494.676 -425.974)" />
            <path
                d="M551.565,434.508a4.188,4.188,0,0,1-1.714.343,2.835,2.835,0,0,1-2.969-3.054,3.041,3.041,0,0,1,3.2-3.181,3.4,3.4,0,0,1,1.5.322l-.247.827a2.619,2.619,0,0,0-1.257-.286,2.076,2.076,0,0,0-2.109,2.271,2.044,2.044,0,0,0,2.07,2.228,3.117,3.117,0,0,0,1.331-.282Z"
                transform="translate(-491.758 -425.968)" />
            <path
                d="M552.614,434.851a2.841,2.841,0,0,1-2.859-3.066,2.92,2.92,0,0,1,2.958-3.17,2.823,2.823,0,0,1,2.872,3.058,2.922,2.922,0,0,1-2.96,3.178Zm.036-.81c1.037,0,1.813-.974,1.813-2.33,0-1.011-.506-2.281-1.788-2.281s-1.824,1.183-1.824,2.319c0,1.3.739,2.292,1.788,2.292Z"
                transform="translate(-489.183 -425.968)" />
            <path
                d="M558.863,433.842a3.507,3.507,0,0,1-.849,2.736,3.275,3.275,0,0,1-2.182.713,3.838,3.838,0,0,1-1.985-.491l.273-.838a3.231,3.231,0,0,0,1.748.482c1.109,0,1.924-.58,1.924-2.1v-.654h-.027a2.115,2.115,0,0,1-1.9,1,2.669,2.669,0,0,1-2.537-2.922,2.853,2.853,0,0,1,2.7-3.155,1.992,1.992,0,0,1,1.86,1.024h.026l.036-.885h.961c-.036.417-.049.9-.049,1.625Zm-1.084-2.749a1.57,1.57,0,0,0-.061-.48,1.547,1.547,0,0,0-1.517-1.157c-1.035,0-1.775.874-1.775,2.266,0,1.158.6,2.144,1.761,2.144a1.561,1.561,0,0,0,1.505-1.122,1.79,1.79,0,0,0,.085-.578Z"
                transform="translate(-485.98 -425.968)" />
            <path
                d="M557.213,430.367c0-.629-.011-1.122-.047-1.613h.959l.063.973h.025a2.208,2.208,0,0,1,1.972-1.111c.825,0,2.108.495,2.108,2.541v3.563h-1.087v-3.439c0-.961-.356-1.775-1.38-1.775a1.567,1.567,0,0,0-1.454,1.109,1.6,1.6,0,0,0-.074.5v3.6h-1.084Z"
                transform="translate(-482.544 -425.968)" />
            <path
                d="M561.392,428.767a.7.7,0,0,1,.025-1.392.666.666,0,0,1,.69.688.68.68,0,0,1-.7.7Zm-.518,7.063v-5.965h1.085v5.965Z"
                transform="translate(-479.365 -427.079)" />
            <path
                d="M562.364,433.62a3.056,3.056,0,0,0,1.441.421c.778,0,1.147-.385,1.147-.889,0-.52-.309-.8-1.1-1.1-1.084-.4-1.589-.975-1.589-1.689a1.846,1.846,0,0,1,2.057-1.752,2.775,2.775,0,0,1,1.454.37l-.258.779a2.416,2.416,0,0,0-1.221-.345c-.641,0-.986.368-.986.812,0,.506.345.73,1.122,1.024,1.022.383,1.564.9,1.564,1.8,0,1.062-.825,1.8-2.218,1.8a3.383,3.383,0,0,1-1.676-.417Z"
                transform="translate(-478.118 -425.968)" />
            <path
                d="M565.714,431.923A1.9,1.9,0,0,0,567.746,434a4.1,4.1,0,0,0,1.653-.3l.2.764a4.873,4.873,0,0,1-2,.381,2.781,2.781,0,0,1-2.933-3.005c0-1.813,1.073-3.231,2.81-3.231a2.518,2.518,0,0,1,2.453,2.812,2.608,2.608,0,0,1-.038.516Zm3.168-.775a1.547,1.547,0,0,0-1.492-1.759,1.784,1.784,0,0,0-1.663,1.759Z"
                transform="translate(-475.824 -425.974)" />
            <path
                d="M573.5,427.219v7.211c0,.529.013,1.132.051,1.54h-.975l-.049-1.037h-.025a2.181,2.181,0,0,1-2.021,1.17c-1.443,0-2.563-1.217-2.563-3.028-.013-2,1.232-3.208,2.673-3.208a1.985,1.985,0,0,1,1.8.9h.025v-3.547Zm-1.085,5.212a2.071,2.071,0,0,0-.047-.468,1.6,1.6,0,0,0-1.566-1.244c-1.12,0-1.788.984-1.788,2.29,0,1.221.6,2.218,1.763,2.218a1.643,1.643,0,0,0,1.591-1.293,1.916,1.916,0,0,0,.047-.468Z"
                transform="translate(-472.906 -427.219)" />
            <path d="M577.508,431.864h-3.218v3h3.6v.9h-4.683v-8.308h4.5v.9h-3.415v2.624h3.218Z"
                transform="translate(-468.171 -427.01)" />
            <path
                d="M577.275,428.688l.849,1.268c.222.345.406.641.6.975h.036c.2-.345.394-.656.6-.975l.825-1.268h1.183l-2.034,2.884,2.084,3.081H580.2l-.876-1.344c-.233-.345-.43-.677-.641-1.035h-.023c-.2.358-.408.677-.629,1.035l-.863,1.344h-1.195l2.118-3.045-2.021-2.92Z"
                transform="translate(-465.695 -425.903)" />
            <path
                d="M579.424,430.7c0-.766-.013-1.382-.049-1.947h.973l.063,1.022h.025a2.3,2.3,0,0,1,2.106-1.16c1.454,0,2.539,1.223,2.539,3.034,0,2.144-1.318,3.2-2.711,3.2a2.074,2.074,0,0,1-1.835-.935h-.025v3.242h-1.085Zm1.085,1.589a1.713,1.713,0,0,0,.049.444,1.658,1.658,0,0,0,1.615,1.27c1.145,0,1.811-.937,1.811-2.307,0-1.195-.616-2.218-1.763-2.218a1.735,1.735,0,0,0-1.651,1.333,2.953,2.953,0,0,0-.061.444Z"
                transform="translate(-462.644 -425.968)" />
            <path
                d="M585.737,434.851a2.841,2.841,0,0,1-2.859-3.066,2.92,2.92,0,0,1,2.958-3.17,2.823,2.823,0,0,1,2.872,3.058,2.922,2.922,0,0,1-2.958,3.178Zm.036-.81c1.037,0,1.813-.974,1.813-2.33,0-1.011-.506-2.281-1.788-2.281s-1.824,1.183-1.824,2.319c0,1.3.74,2.292,1.788,2.292Z"
                transform="translate(-459.505 -425.968)" />
            <path
                d="M586.7,430.613c0-.7-.011-1.306-.049-1.86h.95l.049,1.17h.036a1.807,1.807,0,0,1,1.665-1.308,1.236,1.236,0,0,1,.3.038v1.011a3.8,3.8,0,0,0-.383-.025,1.521,1.521,0,0,0-1.454,1.38,3.437,3.437,0,0,0-.036.518v3.182h-1.084Z"
                transform="translate(-456.122 -425.968)" />
            <path
                d="M590.581,427.934v1.43h1.553v.825h-1.553V433.4c0,.739.211,1.16.815,1.16a2.031,2.031,0,0,0,.628-.074l.049.825a2.969,2.969,0,0,1-.961.146,1.534,1.534,0,0,1-1.17-.455,2.319,2.319,0,0,1-.421-1.564v-3.254H588.6v-.825h.923v-1.1Z"
                transform="translate(-454.38 -426.578)" />
            <path d="M593.583,427.452v3.475H597.6v-3.475h1.084v8.308H597.6v-3.9h-4.018v3.9H592.5v-8.308Z"
                transform="translate(-450.885 -427.01)" />
            <path
                d="M599.36,434.851a2.842,2.842,0,0,1-2.859-3.066,2.921,2.921,0,0,1,2.958-3.17,2.822,2.822,0,0,1,2.872,3.058,2.921,2.921,0,0,1-2.958,3.178Zm.038-.81c1.035,0,1.811-.974,1.811-2.33,0-1.011-.5-2.281-1.786-2.281s-1.824,1.183-1.824,2.319c0,1.3.739,2.292,1.786,2.292Z"
                transform="translate(-447.299 -425.968)" />
            <path
                d="M605.306,433.026c0,.616.013,1.157.049,1.627h-.961l-.061-.975h-.025a2.225,2.225,0,0,1-1.972,1.107c-.937,0-2.059-.529-2.059-2.611v-3.487h1.084v3.29c0,1.136.358,1.911,1.331,1.911a1.56,1.56,0,0,0,1.43-1,1.465,1.465,0,0,0,.1-.556v-3.646h1.084Z"
                transform="translate(-443.914 -425.903)" />
            <path
                d="M603.924,433.62a3.062,3.062,0,0,0,1.441.421c.777,0,1.147-.385,1.147-.889,0-.52-.309-.8-1.1-1.1-1.084-.4-1.589-.975-1.589-1.689a1.846,1.846,0,0,1,2.057-1.752,2.782,2.782,0,0,1,1.456.37l-.26.779a2.417,2.417,0,0,0-1.221-.345c-.641,0-.986.368-.986.812,0,.506.345.73,1.122,1.024,1.024.383,1.564.9,1.564,1.8,0,1.062-.825,1.8-2.218,1.8a3.382,3.382,0,0,1-1.676-.417Z"
                transform="translate(-440.88 -425.968)" />
            <path
                d="M607.273,431.923A1.9,1.9,0,0,0,609.307,434a4.1,4.1,0,0,0,1.651-.3l.2.764a4.873,4.873,0,0,1-2,.381,2.78,2.78,0,0,1-2.931-3.005c0-1.813,1.071-3.231,2.808-3.231a2.519,2.519,0,0,1,2.453,2.812,2.6,2.6,0,0,1-.038.516Zm3.168-.775a1.547,1.547,0,0,0-1.492-1.759,1.784,1.784,0,0,0-1.663,1.759Z"
                transform="translate(-438.585 -425.974)" />
            <path
                d="M609.365,437.367a8.962,8.962,0,0,0,0-10.045h.838a7.955,7.955,0,0,1,1.613,5.017,8.155,8.155,0,0,1-1.613,5.028Z"
                transform="translate(-435.772 -427.127)" />
        </g>
    </g>
</svg>